<svg width="32" height="30" viewBox="0 0 32 30" fill="none" xmlns="http://www.w3.org/2000/svg">
<path d="M25.8952 4.43785C25.9596 2.59199 25.9095 0.612072 25.9024 0.544067H6.30221C6.30221 0.612072 6.24499 2.59296 6.30936 4.43785H1.17993C1.17993 9.08259 1.89519 11.4259 2.68913 13.093C3.62642 15.018 5.08096 16.674 6.90609 17.8941C9.28114 19.4069 11.7883 20.7233 14.4 21.8287V23.762C14.0699 24.442 12.712 25.6885 8.41529 25.6885H6.92755V28.9673H25.3199V25.6885H23.4735C19.1125 25.6885 18.0856 24.3837 17.8485 23.762V21.8287C20.4206 20.6472 22.9245 19.3361 25.3496 17.9009C27.1158 16.6215 28.5569 14.981 29.5665 13.1007C30.6162 10.3244 31.1248 7.3895 31.0675 4.43979H25.8942L25.8952 4.43785ZM5.60534 11.7406C4.94472 10.4143 4.56291 8.97811 4.48136 7.51265H6.53927C6.58933 7.92262 6.64145 8.28985 6.7048 8.62599C7.05709 10.8823 7.67648 13.0936 8.55119 15.2176C7.30103 14.2895 6.29294 13.0996 5.60534 11.7406V11.7406ZM26.6421 11.7406C25.9437 13.1124 24.9208 14.3118 23.6534 15.2448C24.5363 13.1135 25.1582 10.8926 25.5069 8.62599C25.5641 8.28402 25.6224 7.92262 25.6724 7.51265H27.7722C27.6891 8.97855 27.3052 10.4148 26.6421 11.7406V11.7406Z" stroke="#1DAFF2"/>
</svg>
