<svg width="28" height="25" viewBox="0 0 28 25" fill="none" xmlns="http://www.w3.org/2000/svg">
<path d="M17.5446 0.706909H3.62052C2.85033 0.709738 2.11277 1.00295 1.56969 1.52222C1.02661 2.04148 0.722366 2.74438 0.723725 3.47667V18.1638C0.721008 18.3083 0.778281 18.4479 0.883126 18.5524L7.08851 24.636C7.14207 24.6895 7.2064 24.7322 7.27766 24.7616C7.34893 24.7909 7.42568 24.8064 7.50336 24.807H17.5456C17.9264 24.8055 18.3031 24.7326 18.6542 24.5925C19.0053 24.4524 19.3239 24.2479 19.5918 23.9907C19.8597 23.7334 20.0717 23.4285 20.2155 23.0933C20.3593 22.7581 20.4323 22.3992 20.4301 22.0372V3.48152C20.433 3.11902 20.3605 2.75955 20.2169 2.42373C20.0733 2.08791 19.8613 1.78236 19.5933 1.52458C19.3252 1.2668 19.0062 1.06188 18.6546 0.921567C18.3031 0.781253 17.9258 0.708306 17.5446 0.706909ZM6.94239 22.8815L2.66514 18.7244H6.34362C6.4991 18.7223 6.64927 18.7781 6.76196 18.88C6.87464 18.9819 6.94088 19.1217 6.94648 19.2694L6.94239 22.8815ZM19.2653 22.0333C19.2688 22.47 19.0903 22.8903 18.7688 23.2022C18.4473 23.514 18.009 23.6921 17.5497 23.6975H8.1052V19.2694C8.09981 18.8283 7.91114 18.407 7.58037 18.0976C7.24959 17.7882 6.80354 17.6158 6.33953 17.6179H1.88551V3.47667C1.88388 3.03701 2.06595 2.61473 2.39168 2.30266C2.71741 1.99059 3.16015 1.81428 3.62257 1.81248H17.5446C18.0038 1.81633 18.4428 1.99296 18.7655 2.30374C19.0881 2.61452 19.2682 3.03415 19.2663 3.47084V22.0333H19.2653Z" fill="#1DAFF2"/>
<path d="M16.2889 7.89209H5.23301C5.07882 7.89209 4.93093 7.95033 4.8219 8.054C4.71287 8.15767 4.65161 8.29827 4.65161 8.44489C4.65161 8.5915 4.71287 8.7321 4.8219 8.83577C4.93093 8.93944 5.07882 8.99768 5.23301 8.99768H16.2889C16.4431 8.99768 16.5909 8.93944 16.7 8.83577C16.809 8.7321 16.8703 8.5915 16.8703 8.44489C16.8703 8.29827 16.809 8.15767 16.7 8.054C16.5909 7.95033 16.4431 7.89209 16.2889 7.89209Z" fill="#1DAFF2"/>
<path d="M16.2889 11.2079H5.23301C5.07882 11.2079 4.93093 11.2661 4.8219 11.3698C4.71287 11.4735 4.65161 11.6141 4.65161 11.7607C4.65161 11.9073 4.71287 12.0479 4.8219 12.1516C4.93093 12.2552 5.07882 12.3135 5.23301 12.3135H16.2889C16.4431 12.3135 16.5909 12.2552 16.7 12.1516C16.809 12.0479 16.8703 11.9073 16.8703 11.7607C16.8703 11.6141 16.809 11.4735 16.7 11.3698C16.5909 11.2661 16.4431 11.2079 16.2889 11.2079Z" fill="#1DAFF2"/>
<path d="M16.2889 14.5236H5.23301C5.15666 14.5236 5.08106 14.5379 5.01053 14.5657C4.93999 14.5935 4.87589 14.6342 4.8219 14.6855C4.76791 14.7369 4.72509 14.7978 4.69587 14.8649C4.66665 14.9319 4.65161 15.0038 4.65161 15.0764C4.65161 15.149 4.66665 15.2209 4.69587 15.2879C4.72509 15.355 4.76791 15.4159 4.8219 15.4672C4.87589 15.5186 4.93999 15.5593 5.01053 15.5871C5.08106 15.6149 5.15666 15.6292 5.23301 15.6292H16.2889C16.3652 15.6292 16.4408 15.6149 16.5114 15.5871C16.5819 15.5593 16.646 15.5186 16.7 15.4672C16.754 15.4159 16.7968 15.355 16.826 15.2879C16.8552 15.2209 16.8703 15.149 16.8703 15.0764C16.8703 15.0038 16.8552 14.9319 16.826 14.8649C16.7968 14.7978 16.754 14.7369 16.7 14.6855C16.646 14.6342 16.5819 14.5935 16.5114 14.5657C16.4408 14.5379 16.3652 14.5236 16.2889 14.5236Z" fill="#1DAFF2"/>
<path d="M5.23301 5.90247H10.342C10.4962 5.90247 10.6441 5.84422 10.7531 5.74056C10.8621 5.63689 10.9234 5.49628 10.9234 5.34967C10.9234 5.20306 10.8621 5.06245 10.7531 4.95879C10.6441 4.85512 10.4962 4.79688 10.342 4.79688H5.23301C5.07882 4.79688 4.93093 4.85512 4.8219 4.95879C4.71287 5.06245 4.65161 5.20306 4.65161 5.34967C4.65161 5.49628 4.71287 5.63689 4.8219 5.74056C4.93093 5.84422 5.07882 5.90247 5.23301 5.90247Z" fill="#1DAFF2"/>
<path d="M25.3367 1.25C24.6512 1.25077 23.9939 1.50991 23.5089 1.97064C23.024 2.43136 22.7509 3.05609 22.7495 3.7079L22.7383 20.3983C22.7381 20.4872 22.7606 20.5749 22.8037 20.6538L24.8217 24.3455C24.8709 24.4351 24.945 24.5102 25.0358 24.5626C25.1267 24.615 25.231 24.6427 25.3373 24.6427C25.4435 24.6427 25.5478 24.615 25.6387 24.5626C25.7295 24.5102 25.8036 24.4351 25.8527 24.3455L27.8708 20.6538C27.9139 20.5749 27.9363 20.4872 27.9362 20.3983L27.925 3.7079C27.9236 3.05592 27.6504 2.43104 27.1652 1.97029C26.68 1.50954 26.0225 1.25051 25.3367 1.25ZM26.7673 6.84197H23.9134V6.28918H26.7662L26.7673 6.84197ZM26.7673 7.94754L26.7754 19.83H23.9031L23.9113 7.94754H26.7673ZM25.3367 2.35557C25.714 2.3571 26.0754 2.50028 26.3421 2.75392C26.6089 3.00757 26.7595 3.35114 26.7611 3.70985V5.18361H23.9093V3.70887C23.9112 3.34967 24.0624 3.00576 24.3301 2.75221C24.5977 2.49867 24.9599 2.35608 25.3377 2.35557H25.3367ZM25.3367 22.8747L24.2761 20.9317H26.3963L25.3367 22.8747Z" fill="#1DAFF2"/>
</svg>
