<svg width="30" height="28" viewBox="0 0 30 28" fill="none" xmlns="http://www.w3.org/2000/svg">
<path d="M4.22735 22.328H5.63641C5.76107 22.328 5.88062 22.2809 5.96877 22.1971C6.05692 22.1133 6.10644 21.9997 6.10644 21.8812V16.5233C6.10644 16.4048 6.05692 16.2911 5.96877 16.2073C5.88062 16.1235 5.76107 16.0764 5.63641 16.0764H4.22735C4.10269 16.0764 3.98314 16.1235 3.89499 16.2073C3.80684 16.2911 3.75732 16.4048 3.75732 16.5233V21.8821C3.75759 22.0005 3.80724 22.1139 3.89535 22.1975C3.98347 22.2811 4.10287 22.328 4.22735 22.328ZM4.69738 16.9692H5.1674V21.4382H4.69738V16.9692ZM7.04752 22.328H8.45759C8.58225 22.328 8.70181 22.2809 8.78996 22.1971C8.8781 22.1133 8.92762 21.9997 8.92762 21.8812V17.8621C8.92762 17.7435 8.8781 17.6298 8.78996 17.546C8.70181 17.4622 8.58225 17.4151 8.45759 17.4151H7.04547C6.92081 17.4151 6.80126 17.4622 6.71311 17.546C6.62496 17.6298 6.57545 17.7435 6.57545 17.8621V21.8812C6.57545 21.9997 6.62496 22.1133 6.71311 22.1971C6.80126 22.2809 6.92081 22.328 7.04547 22.328H7.04752ZM7.51754 18.3089H7.98757V21.4352H7.51754V18.3089ZM9.86768 22.328H11.2767C11.4014 22.328 11.521 22.2809 11.6091 22.1971C11.6972 22.1133 11.7468 21.9997 11.7468 21.8812V19.2018C11.7468 19.0832 11.6972 18.9695 11.6091 18.8857C11.521 18.8019 11.4014 18.7548 11.2767 18.7548H9.86359C9.73893 18.7548 9.61938 18.8019 9.53123 18.8857C9.44309 18.9695 9.39356 19.0832 9.39356 19.2018V21.8812C9.39356 21.9997 9.44309 22.1133 9.53123 22.1971C9.61938 22.2809 9.73893 22.328 9.86359 22.328H9.86768ZM10.3377 19.6486H10.8077V21.4352H10.3377V19.6486Z" fill="#1DAFF2"/>
<path d="M2.81819 23.6687H12.2126C12.2761 23.6715 12.3396 23.662 12.3991 23.6409C12.4587 23.6197 12.5131 23.5873 12.5591 23.5455C12.605 23.5038 12.6416 23.4536 12.6667 23.3981C12.6917 23.3425 12.7046 23.2827 12.7046 23.2223C12.7046 23.1618 12.6917 23.102 12.6667 23.0465C12.6416 22.9909 12.605 22.9407 12.5591 22.899C12.5131 22.8573 12.4587 22.8248 12.3991 22.8037C12.3396 22.7825 12.2761 22.773 12.2126 22.7759H3.2872V15.6304C3.29016 15.5701 3.28022 15.5098 3.25796 15.4532C3.2357 15.3965 3.20159 15.3448 3.1577 15.3011C3.11381 15.2574 3.06105 15.2226 3.00261 15.1988C2.94416 15.175 2.88125 15.1627 2.81768 15.1627C2.75411 15.1627 2.6912 15.175 2.63276 15.1988C2.57432 15.2226 2.52156 15.2574 2.47767 15.3011C2.43378 15.3448 2.39967 15.3965 2.37741 15.4532C2.35515 15.5098 2.3452 15.5701 2.34817 15.6304V23.2227C2.34844 23.3411 2.39808 23.4545 2.48619 23.5381C2.57431 23.6217 2.69371 23.6687 2.81819 23.6687Z" fill="#1DAFF2"/>
<path d="M28.6512 5.35881H22.546V4.46891C22.546 4.35039 22.4964 4.23672 22.4083 4.15291C22.3202 4.06911 22.2006 4.02202 22.0759 4.02202H21.6059V3.12921C21.6059 2.2998 21.2596 1.50431 20.643 0.917555C20.0265 0.330798 19.1901 0.000772506 18.3178 0H10.8035C9.93165 0.000771676 9.09577 0.330397 8.47929 0.916524C7.86282 1.50265 7.51613 2.29739 7.51532 3.1263V4.01911H7.0504C6.98868 4.01911 6.92756 4.03067 6.87053 4.05313C6.81351 4.07558 6.76169 4.1085 6.71804 4.15C6.6744 4.1915 6.63978 4.24076 6.61616 4.29498C6.59253 4.3492 6.58038 4.40731 6.58038 4.466V5.35881H0.470027C0.408302 5.35881 0.347182 5.37037 0.290156 5.39283C0.23313 5.41529 0.181314 5.4482 0.137668 5.4897C0.0940221 5.5312 0.0593994 5.58046 0.0357784 5.63468C0.0121573 5.6889 0 5.74702 0 5.8057V13.8439C0 13.9026 0.0121573 13.9607 0.0357784 14.0149C0.0593994 14.0692 0.0940221 14.1184 0.137668 14.1599C0.181314 14.2014 0.23313 14.2343 0.290156 14.2568C0.347182 14.2792 0.408302 14.2908 0.470027 14.2908H0.940054V27.2409C0.940054 27.3595 0.989574 27.4731 1.07772 27.5569C1.16587 27.6408 1.28542 27.6878 1.41008 27.6878H27.7122C27.8368 27.6878 27.9564 27.6408 28.0445 27.5569C28.1327 27.4731 28.1822 27.3595 28.1822 27.2409V14.2908H28.6522C28.7769 14.2908 28.8964 14.2437 28.9846 14.1599C29.0727 14.0761 29.1223 13.9624 29.1223 13.8439V5.8057C29.1223 5.74693 29.1101 5.68874 29.0864 5.63446C29.0627 5.58018 29.028 5.53087 28.9842 5.48936C28.9405 5.44785 28.8885 5.41495 28.8314 5.39255C28.7742 5.37015 28.713 5.35868 28.6512 5.35881ZM10.8035 4.01911H10.3334V3.1263C10.3334 3.00777 10.383 2.8941 10.4711 2.8103C10.5593 2.72649 10.6788 2.67941 10.8035 2.67941H18.3188C18.4434 2.67941 18.563 2.72649 18.6511 2.8103C18.7393 2.8941 18.7888 3.00777 18.7888 3.1263V4.01911H18.3188C18.2571 4.01911 18.1959 4.03067 18.1389 4.05313C18.0819 4.07558 18.0301 4.1085 17.9864 4.15C17.9428 4.1915 17.9082 4.24076 17.8845 4.29498C17.8609 4.3492 17.8488 4.40731 17.8488 4.466V5.35881H11.2725V4.46891C11.2729 4.41006 11.261 4.35172 11.2377 4.29722C11.2143 4.24273 11.1798 4.19317 11.1363 4.15137C11.0927 4.10958 11.0408 4.07638 10.9837 4.05368C10.9266 4.03098 10.8654 4.01923 10.8035 4.01911ZM18.7888 4.91192H21.6069V5.35881H18.7878L18.7888 4.91192ZM8.45435 3.1263C8.45435 2.53368 8.70196 1.96534 9.14269 1.5463C9.58343 1.12726 10.1812 0.89184 10.8045 0.89184H18.3198C18.9431 0.89184 19.5409 1.12726 19.9816 1.5463C20.4223 1.96534 20.6699 2.53368 20.6699 3.1263V4.01911H19.7309V3.1263C19.7304 2.77114 19.5817 2.43068 19.3176 2.17955C19.0535 1.92842 18.6954 1.78711 18.3219 1.78659H10.8035C10.4299 1.78711 10.0718 1.92842 9.80771 2.17955C9.54358 2.43068 9.39495 2.77114 9.39441 3.1263V4.01911H8.45538L8.45435 3.1263ZM7.51532 4.91289H10.3334V5.35978H7.51532V4.91289ZM27.2421 26.795H1.87909V14.2908H11.2735V15.6305C11.2735 15.749 11.323 15.8627 11.4112 15.9465C11.4993 16.0303 11.6189 16.0774 11.7435 16.0774H17.3798C17.5044 16.0774 17.624 16.0303 17.7121 15.9465C17.8003 15.8627 17.8498 15.749 17.8498 15.6305V14.2908H27.2442L27.2421 26.795ZM12.2125 15.1836V12.5042H16.9128V15.1836H12.2125ZM28.1822 13.397H17.8488V12.0573C17.8488 11.9388 17.7992 11.8251 17.7111 11.7413C17.6229 11.6575 17.5034 11.6104 17.3787 11.6104H11.7425C11.6178 11.6104 11.4983 11.6575 11.4101 11.7413C11.322 11.8251 11.2725 11.9388 11.2725 12.0573V13.397H0.939032V6.25162H28.1822V13.397Z" fill="#1DAFF2"/>
<path d="M22.5462 15.6305C21.7102 15.6305 20.8929 15.8662 20.1977 16.3078C19.5026 16.7495 18.9608 17.3772 18.6408 18.1116C18.3209 18.8459 18.2372 19.6541 18.4003 20.4337C18.5634 21.2133 18.966 21.9294 19.5571 22.4915C20.1483 23.0536 20.9016 23.4364 21.7215 23.5915C22.5415 23.7466 23.3915 23.667 24.1639 23.3628C24.9363 23.0586 25.5965 22.5434 26.061 21.8825C26.5255 21.2216 26.7734 20.4445 26.7734 19.6496C26.7734 18.5837 26.328 17.5614 25.5353 16.8077C24.7425 16.0539 23.6673 15.6305 22.5462 15.6305ZM23.0163 16.5563C23.7183 16.6537 24.3686 16.9639 24.8703 17.4409C25.372 17.9179 25.6983 18.5362 25.8007 19.2037H23.0163V16.5563ZM19.2591 19.6496C19.2604 18.8983 19.5457 18.1725 20.0631 17.6047C20.5805 17.0368 21.2953 16.6647 22.0772 16.5563V19.465L19.9151 21.5207C19.4882 20.9814 19.2576 20.3246 19.2581 19.6496H19.2591ZM22.5473 22.7759C21.8374 22.7766 21.1467 22.5577 20.5793 22.1522L22.7414 20.0965H25.8007C25.6866 20.8401 25.2951 21.5199 24.6977 22.0118C24.1002 22.5037 23.3366 22.7749 22.5462 22.7759H22.5473ZM13.6228 23.6687H17.38C17.4435 23.6715 17.5069 23.6621 17.5665 23.6409C17.626 23.6198 17.6804 23.5873 17.7264 23.5456C17.7724 23.5039 17.809 23.4537 17.834 23.3981C17.859 23.3426 17.8719 23.2828 17.8719 23.2223C17.8719 23.1619 17.859 23.102 17.834 23.0465C17.809 22.9909 17.7724 22.9408 17.7264 22.899C17.6804 22.8573 17.626 22.8249 17.5665 22.8037C17.5069 22.7825 17.4435 22.7731 17.38 22.7759H13.6218C13.5583 22.7731 13.4949 22.7825 13.4353 22.8037C13.3758 22.8249 13.3214 22.8573 13.2754 22.899C13.2294 22.9408 13.1928 22.9909 13.1678 23.0465C13.1428 23.102 13.1299 23.1619 13.1299 23.2223C13.1299 23.2828 13.1428 23.3426 13.1678 23.3981C13.1928 23.4537 13.2294 23.5039 13.2754 23.5456C13.3214 23.5873 13.3758 23.6198 13.4353 23.6409C13.4949 23.6621 13.5583 23.6715 13.6218 23.6687H13.6228ZM15.0319 22.329H17.382C17.4455 22.3318 17.509 22.3224 17.5685 22.3012C17.6281 22.2801 17.6825 22.2476 17.7285 22.2059C17.7745 22.1641 17.8111 22.114 17.8361 22.0584C17.8611 22.0029 17.874 21.943 17.874 21.8826C17.874 21.8222 17.8611 21.7623 17.8361 21.7068C17.8111 21.6512 17.7745 21.601 17.7285 21.5593C17.6825 21.5176 17.6281 21.4852 17.5685 21.464C17.509 21.4428 17.4455 21.4334 17.382 21.4362H15.0319C14.9684 21.4334 14.905 21.4428 14.8454 21.464C14.7859 21.4852 14.7315 21.5176 14.6855 21.5593C14.6395 21.601 14.6029 21.6512 14.5779 21.7068C14.5529 21.7623 14.54 21.8222 14.54 21.8826C14.54 21.943 14.5529 22.0029 14.5779 22.0584C14.6029 22.114 14.6395 22.1641 14.6855 22.2059C14.7315 22.2476 14.7859 22.2801 14.8454 22.3012C14.905 22.3224 14.9684 22.3318 15.0319 22.329Z" fill="#1DAFF2"/>
<path d="M25.8332 24.1156H19.2569C19.1323 24.1157 19.0128 24.1629 18.9248 24.2468L17.6537 25.4553H2.81823C2.6975 25.4607 2.58358 25.51 2.50013 25.5932C2.41668 25.6763 2.37012 25.7868 2.37012 25.9017C2.37012 26.0166 2.41668 26.1271 2.50013 26.2103C2.58358 26.2934 2.6975 26.3428 2.81823 26.3481H17.8489C17.9735 26.348 18.0929 26.3008 18.1809 26.217L19.4521 25.0084H25.8332C25.8967 25.0112 25.9601 25.0018 26.0197 24.9806C26.0792 24.9594 26.1336 24.927 26.1796 24.8853C26.2256 24.8436 26.2622 24.7934 26.2872 24.7378C26.3122 24.6823 26.3251 24.6224 26.3251 24.562C26.3251 24.5016 26.3122 24.4418 26.2872 24.3862C26.2622 24.3306 26.2256 24.2805 26.1796 24.2387C26.1336 24.197 26.0792 24.1646 26.0197 24.1434C25.9601 24.1222 25.8967 24.1128 25.8332 24.1156Z" fill="#1DAFF2"/>
</svg>
