<svg width="67" height="67" viewBox="0 0 67 67" fill="none" xmlns="http://www.w3.org/2000/svg">
<path d="M33.416 66.83C25.1594 66.8194 17.2008 63.7423 11.0844 58.196C4.96805 52.6497 1.12975 45.0292 0.313938 36.813C-0.501878 28.5967 1.76312 20.3705 6.66941 13.7297C11.5757 7.08888 18.7733 2.50686 26.8667 0.872765C34.96 -0.761332 43.3721 0.668988 50.4707 4.88595C57.5692 9.10291 62.8482 15.8059 65.2842 23.695C67.7201 31.5842 67.1395 40.097 63.6543 47.582C60.169 55.067 54.0275 60.9907 46.4218 64.2041C42.3073 65.9453 37.8838 66.8384 33.416 66.83ZM28.167 41.5529C26.2064 41.5409 24.2631 41.9179 22.4492 42.6621C20.5182 43.4854 18.7704 44.6849 17.3081 46.1909C15.9394 47.5808 14.7361 49.1245 13.7221 50.791C12.6044 52.5923 11.6715 54.5019 10.938 56.4909C11.6773 55.3898 12.5729 54.4019 13.5962 53.5581C14.6881 52.634 15.8865 51.8437 17.166 51.2041C18.8366 50.374 20.6144 49.7793 22.4482 49.437C23.4257 49.2488 24.4186 49.1544 25.414 49.155C27.7891 49.2273 30.1391 49.6605 32.3838 50.4399L32.665 50.5249L32.7539 50.552C34.6186 51.2276 36.5735 51.6233 38.5542 51.726C39.6561 51.7298 40.7491 51.5332 41.7807 51.146C43.885 50.3226 45.8018 49.0832 47.416 47.5019C48.9446 46.0281 50.2995 44.3841 51.4541 42.602C52.7328 40.6629 53.8181 38.6029 54.6948 36.4519C53.8179 37.6069 52.7984 38.6462 51.6601 39.5449C50.4975 40.4829 49.23 41.2835 47.8838 41.9309C46.2206 42.7286 44.448 43.2738 42.624 43.5481C42.1605 43.6161 41.6926 43.6493 41.2241 43.6479C39.2603 43.5529 37.3137 43.2311 35.4238 42.6889L35.063 42.602C32.8152 41.9748 30.4996 41.6225 28.167 41.5529ZM28.167 28.7729C26.2064 28.7608 24.2631 29.1379 22.4492 29.882C20.5182 30.7054 18.7705 31.9049 17.3081 33.4109C15.9393 34.8007 14.736 36.3444 13.7221 38.0109C12.6044 39.8122 11.6715 41.7219 10.938 43.7109C11.6773 42.6097 12.5729 41.6219 13.5962 40.778C14.6882 39.854 15.8865 39.0638 17.166 38.424C18.8366 37.5936 20.6144 36.9986 22.4482 36.656C23.4257 36.4678 24.4186 36.3734 25.414 36.374C27.7891 36.4463 30.1391 36.8795 32.3838 37.6589L32.665 37.7439L32.7539 37.771C34.6186 38.4466 36.5735 38.8423 38.5542 38.945C39.6561 38.9488 40.7491 38.7522 41.7807 38.365C43.8851 37.5418 45.8019 36.3023 47.416 34.7209C48.9449 33.2455 50.2998 31.5997 51.4541 29.8159C52.7329 27.8768 53.8181 25.817 54.6948 23.666C53.8177 24.8206 52.7983 25.8596 51.6601 26.758C50.4975 27.6961 49.2301 28.4967 47.8838 29.144C46.2207 29.9417 44.448 30.4867 42.624 30.7609C42.1605 30.8289 41.6926 30.8625 41.2241 30.861C39.2603 30.766 37.3137 30.4443 35.4238 29.9021L35.063 29.8149C32.8149 29.1899 30.4993 28.8401 28.167 28.7729ZM28.167 16.549C26.2064 16.5366 24.2632 16.9131 22.4492 17.6569C20.5183 18.4804 18.7705 19.6801 17.3081 21.186C15.9393 22.5759 14.7361 24.1193 13.7221 25.7859C12.6044 27.5871 11.6715 29.4971 10.938 31.486C11.6773 30.3849 12.5729 29.3968 13.5962 28.5529C14.6881 27.6288 15.8864 26.8385 17.166 26.1989C18.8366 25.3685 20.6144 24.7735 22.4482 24.4309C23.4255 24.2441 24.4181 24.1497 25.4131 24.1489C27.7885 24.2213 30.1388 24.6551 32.3838 25.435L32.749 25.5459C34.6137 26.2216 36.5681 26.6177 38.5488 26.7209C39.6514 26.7248 40.7455 26.5284 41.7778 26.1411C43.8821 25.3177 45.7989 24.0783 47.4131 22.497C48.9416 21.0231 50.2965 19.3789 51.4511 17.5969C52.7298 15.6577 53.815 13.5979 54.6919 11.447C53.8148 12.6017 52.7954 13.6406 51.6572 14.539C50.4946 15.4768 49.2271 16.2771 47.8808 16.924C46.2177 17.7217 44.4451 18.2667 42.6211 18.541C42.1575 18.6089 41.6897 18.6424 41.2212 18.6411C39.2573 18.5463 37.3107 18.2242 35.4209 17.6818L35.0581 17.5949C32.8118 16.9692 30.4978 16.618 28.167 16.549Z" fill="white"/>
</svg>
