<svg width="24" height="27" viewBox="0 0 24 27" fill="none" xmlns="http://www.w3.org/2000/svg">
<path d="M10.0718 5.5531H11.9448V7.33386C11.9448 7.43357 11.9864 7.5292 12.0606 7.59971C12.1348 7.67022 12.2353 7.70983 12.3402 7.70983C12.4451 7.70983 12.5457 7.67022 12.6198 7.59971C12.694 7.5292 12.7357 7.43357 12.7357 7.33386V5.5531H14.5555C14.6604 5.5531 14.7609 5.51348 14.8351 5.44298C14.9093 5.37247 14.9509 5.27684 14.9509 5.17712C14.9509 5.07741 14.9093 4.98178 14.8351 4.91127C14.7609 4.84076 14.6604 4.80115 14.5555 4.80115H12.7357V3.07091C12.7357 2.97119 12.694 2.87556 12.6198 2.80506C12.5457 2.73455 12.4451 2.69494 12.3402 2.69494C12.2353 2.69494 12.1348 2.73455 12.0606 2.80506C11.9864 2.87556 11.9448 2.97119 11.9448 3.07091V4.80115H10.0718C9.96695 4.80115 9.86637 4.84076 9.79221 4.91127C9.71805 4.98178 9.67639 5.07741 9.67639 5.17712C9.67639 5.27684 9.71805 5.37247 9.79221 5.44298C9.86637 5.51348 9.96695 5.5531 10.0718 5.5531ZM21.8879 10.8692H20.7016V8.23639C20.7011 7.73772 20.4925 7.25962 20.1216 6.90701C19.7507 6.55439 19.2479 6.35607 18.7234 6.35556H17.062C17.2501 5.66957 17.2704 4.95172 17.1212 4.25713C16.9721 3.56254 16.6575 2.90968 16.2016 2.34871C15.7457 1.78774 15.1606 1.33358 14.4913 1.0211C13.8221 0.708621 13.0864 0.546143 12.3407 0.546143C11.5951 0.546143 10.8594 0.708621 10.1901 1.0211C9.52084 1.33358 8.93579 1.78774 8.4799 2.34871C8.02401 2.90968 7.7094 3.56254 7.56026 4.25713C7.41111 4.95172 7.43138 5.66957 7.61951 6.35556H3.16141C2.427 6.35556 1.72268 6.63294 1.20338 7.12668C0.684073 7.62042 0.392334 8.29007 0.392334 8.98833V22.8313C0.393416 23.7289 0.768937 24.5895 1.43651 25.2242C2.10409 25.8589 3.00921 26.2159 3.9533 26.2169H21.8879C22.4124 26.2164 22.9152 26.0181 23.2861 25.6655C23.657 25.3129 23.8656 24.8348 23.8661 24.3361V12.75C23.8656 12.2513 23.657 11.7732 23.2861 11.4206C22.9152 11.068 22.4124 10.8697 21.8879 10.8692ZM12.3402 1.29014C13.0032 1.29091 13.656 1.44476 14.2426 1.73847C14.8292 2.03218 15.332 2.45697 15.7077 2.97629C16.0835 3.49561 16.3209 4.09394 16.3996 4.71981C16.4784 5.34568 16.396 5.98036 16.1597 6.56929C16.1501 6.58869 16.1422 6.60884 16.1362 6.62952C15.7756 7.48219 15.1077 8.18505 14.252 8.61236H10.4284C9.57252 8.18481 8.9046 7.48158 8.54424 6.62855C8.53824 6.60787 8.53038 6.58771 8.52074 6.56832C8.28463 5.97944 8.20245 5.34486 8.28128 4.71912C8.36012 4.09339 8.59759 3.49521 8.9733 2.97601C9.34901 2.45682 9.85171 2.03214 10.4382 1.73848C11.0247 1.44482 11.6774 1.29097 12.3402 1.29014ZM1.76257 7.65834C1.94583 7.48313 2.16383 7.34423 2.40394 7.24967C2.64406 7.15512 2.90151 7.1068 3.16141 7.1075H7.89949C8.17358 7.67909 8.56792 8.19124 9.0582 8.61236H6.32694C6.22206 8.61236 6.12148 8.65197 6.04732 8.72248C5.97317 8.79298 5.9315 8.88861 5.9315 8.98833C5.9315 9.08804 5.97317 9.18367 6.04732 9.25418C6.12148 9.32469 6.22206 9.3643 6.32694 9.3643H18.3014C18.4063 9.3643 18.5068 9.32469 18.581 9.25418C18.6552 9.18367 18.6968 9.08804 18.6968 8.98833C18.6968 8.88861 18.6552 8.79298 18.581 8.72248C18.5068 8.65197 18.4063 8.61236 18.3014 8.61236H15.6222C16.1125 8.19124 16.5069 7.67909 16.781 7.1075H18.7224C19.037 7.10801 19.3386 7.22715 19.561 7.43877C19.7834 7.65039 19.9084 7.93723 19.9087 8.23639V10.8692H3.16141C2.77119 10.8682 2.38998 10.7576 2.06574 10.5511C1.74151 10.3447 1.48872 10.0517 1.3392 9.70904C1.18967 9.36635 1.15009 8.98926 1.22542 8.62523C1.30075 8.2612 1.48764 7.92649 1.76257 7.6632V7.65834ZM23.0763 20.3986H18.75C18.2324 20.3986 17.7359 20.2031 17.3699 19.8551C17.0039 19.5072 16.7983 19.0352 16.7983 18.5431C16.7983 18.0509 17.0039 17.579 17.3699 17.231C17.7359 16.883 18.2324 16.6875 18.75 16.6875H23.0763V20.3986ZM23.0763 15.9346H18.75C18.3853 15.9279 18.0229 15.9904 17.6839 16.1184C17.3449 16.2465 17.0362 16.4375 16.7759 16.6804C16.5155 16.9232 16.3086 17.213 16.1674 17.5327C16.0262 17.8525 15.9535 18.1958 15.9535 18.5426C15.9535 18.8894 16.0262 19.2327 16.1674 19.5524C16.3086 19.8722 16.5155 20.1619 16.7759 20.4048C17.0362 20.6476 17.3449 20.8386 17.6839 20.9667C18.0229 21.0947 18.3853 21.1573 18.75 21.1506H23.0763V24.3351C23.076 24.6345 22.9508 24.9215 22.7282 25.1331C22.5056 25.3448 22.2037 25.4638 21.8889 25.464H3.9533C3.21915 25.4633 2.51529 25.1856 1.99617 24.6921C1.47704 24.1985 1.18504 23.5293 1.18423 22.8313V10.8293C1.44151 11.0804 1.74913 11.28 2.0889 11.4161C2.42868 11.5523 2.79371 11.6223 3.16243 11.6221H21.8879C22.2027 11.6221 22.5047 11.7408 22.7275 11.9523C22.9503 12.1638 23.0757 12.4507 23.0763 12.75V15.9346ZM18.376 18.5431C18.376 18.6174 18.3992 18.6901 18.4426 18.7519C18.4861 18.8138 18.5478 18.8619 18.6201 18.8904C18.6923 18.9189 18.7719 18.9263 18.8486 18.9118C18.9253 18.8973 18.9957 18.8615 19.051 18.8089C19.1063 18.7563 19.144 18.6893 19.1593 18.6164C19.1745 18.5435 19.1667 18.4679 19.1368 18.3992C19.1068 18.3305 19.0561 18.2718 18.9911 18.2304C18.9261 18.1891 18.8496 18.1671 18.7714 18.1671C18.7195 18.1671 18.6681 18.1768 18.6201 18.1957C18.5721 18.2146 18.5285 18.2423 18.4918 18.2772C18.4551 18.3121 18.426 18.3536 18.4061 18.3992C18.3862 18.4448 18.376 18.4937 18.376 18.5431Z" fill="#1DAFF2"/>
</svg>
