<svg width="32" height="28" viewBox="0 0 32 28" fill="none" xmlns="http://www.w3.org/2000/svg">
<path d="M26.4917 7.15967H5.22601C4.08292 7.16044 2.98688 7.59252 2.17859 8.36102C1.3703 9.12952 0.915851 10.1716 0.915039 11.2584V22.7338C0.915851 23.8206 1.3703 24.8627 2.17859 25.6312C2.98688 26.3997 4.08292 26.8318 5.22601 26.8326H26.4917C27.6348 26.8318 28.7308 26.3997 29.5391 25.6312C30.3474 24.8627 30.8018 23.8206 30.8026 22.7338V11.2584C30.8018 10.1716 30.3474 9.12952 29.5391 8.36102C28.7308 7.59252 27.6348 7.16044 26.4917 7.15967V7.15967Z" stroke="#1DAFF2"/>
<path d="M22.1019 0.669993L5.22589 3.80795C3.9323 4.079 2.06445 5.31572 2.06445 6.81961C2.51827 6.37495 3.06773 6.0287 3.67525 5.80452C4.28277 5.58035 4.93405 5.48354 5.58455 5.52071H26.2044V4.1198C26.2071 3.17735 25.8527 2.26551 25.2061 1.55115V1.55115C24.8068 1.17016 24.3137 0.890011 23.7716 0.736136C23.2295 0.58226 22.6556 0.559525 22.1019 0.669993V0.669993Z" stroke="#1DAFF2"/>
</svg>
